{
    "asset" : {
        "generator" : "Khronos glTF Blender I/O v3.3.32",
        "version" : "2.0"
    },
    "scene" : 0,
    "scenes" : [
        {
            "name" : "Scene",
            "nodes" : [
                0
            ]
        }
    ],
    "nodes" : [
        {
            "mesh" : 0,
            "name" : "smasher ",
            "rotation" : [
                0.4954748749732971,
                0.5044845342636108,
                -0.4954749047756195,
                0.5044845342636108
            ],
            "scale" : [
                1.2750616073608398,
                1.2750616073608398,
                1.2750616073608398
            ],
            "translation" : [
                -30.139888763427734,
                20.87151336669922,
                -106.90997314453125
            ]
        }
    ],
    "materials" : [
        {
            "doubleSided" : true,
            "name" : "simple metal",
            "pbrMetallicRoughness" : {
                "baseColorFactor" : [
                    0.468327134847641,
                    0.5670003890991211,
                    0.5866958498954773,
                    1
                ],
                "roughnessFactor" : 0.19696968793869019
            }
        },
        {
            "doubleSided" : true,
            "name" : "Material",
            "pbrMetallicRoughness" : {
                "baseColorFactor" : [
                    0.006058741360902786,
                    0.006058741360902786,
                    0.006058741360902786,
                    1
                ],
                "roughnessFactor" : 0.25151515007019043
            }
        }
    ],
    "meshes" : [
        {
            "name" : "Torus.002",
            "primitives" : [
                {
                    "attributes" : {
                        "POSITION" : 0,
                        "NORMAL" : 1,
                        "TEXCOORD_0" : 2
                    },
                    "indices" : 3,
                    "material" : 0
                },
                {
                    "attributes" : {
                        "POSITION" : 4,
                        "NORMAL" : 5,
                        "TEXCOORD_0" : 6
                    },
                    "indices" : 7,
                    "material" : 1
                }
            ]
        }
    ],
    "accessors" : [
        {
            "bufferView" : 0,
            "componentType" : 5126,
            "count" : 6552,
            "max" : [
                1.3200076818466187,
                1.2810783386230469,
                17.076251983642578
            ],
            "min" : [
                -1.3199999332427979,
                -1.5956597328186035,
                -2.0020673274993896
            ],
            "type" : "VEC3"
        },
        {
            "bufferView" : 1,
            "componentType" : 5126,
            "count" : 6552,
            "type" : "VEC3"
        },
        {
            "bufferView" : 2,
            "componentType" : 5126,
            "count" : 6552,
            "type" : "VEC2"
        },
        {
            "bufferView" : 3,
            "componentType" : 5123,
            "count" : 35712,
            "type" : "SCALAR"
        },
        {
            "bufferView" : 4,
            "componentType" : 5126,
            "count" : 260,
            "max" : [
                2.4618968963623047,
                1.852874517440796,
                19.057453155517578
            ],
            "min" : [
                -1.9107952117919922,
                -2.5191075801849365,
                14.685470581054688
            ],
            "type" : "VEC3"
        },
        {
            "bufferView" : 5,
            "componentType" : 5126,
            "count" : 260,
            "type" : "VEC3"
        },
        {
            "bufferView" : 6,
            "componentType" : 5126,
            "count" : 260,
            "type" : "VEC2"
        },
        {
            "bufferView" : 7,
            "componentType" : 5123,
            "count" : 1140,
            "type" : "SCALAR"
        }
    ],
    "bufferViews" : [
        {
            "buffer" : 0,
            "byteLength" : 78624,
            "byteOffset" : 0,
            "target" : 34962
        },
        {
            "buffer" : 0,
            "byteLength" : 78624,
            "byteOffset" : 78624,
            "target" : 34962
        },
        {
            "buffer" : 0,
            "byteLength" : 52416,
            "byteOffset" : 157248,
            "target" : 34962
        },
        {
            "buffer" : 0,
            "byteLength" : 71424,
            "byteOffset" : 209664,
            "target" : 34963
        },
        {
            "buffer" : 0,
            "byteLength" : 3120,
            "byteOffset" : 281088,
            "target" : 34962
        },
        {
            "buffer" : 0,
            "byteLength" : 3120,
            "byteOffset" : 284208,
            "target" : 34962
        },
        {
            "buffer" : 0,
            "byteLength" : 2080,
            "byteOffset" : 287328,
            "target" : 34962
        },
        {
            "buffer" : 0,
            "byteLength" : 2280,
            "byteOffset" : 289408,
            "target" : 34963
        }
    ],
    "buffers" : [
        {
            "byteLength" : 291688,
            "uri" : "data:application/octet-stream;base64,"
        }
    ]
}
